<svg aria-hidden="true" style="width:0;height:0;position:absolute;overflow:hidden" xmlns="http://www.w3.org/2000/svg"><defs><symbol id="icon-remove-user" viewBox="0 0 20 20"><path d="M15.989 19.129c0-2.246-2.187-3.389-4.317-4.307-2.123-.914-2.801-1.684-2.801-3.334 0-.989.648-.667.932-2.481.12-.752.692-.012.802-1.729 0-.684-.313-.854-.313-.854s.159-1.013.221-1.793c.064-.817-.398-2.56-2.301-3.095-.332-.341-.557-.882.467-1.424-2.24-.104-2.761 1.068-3.954 1.93-1.015.756-1.289 1.953-1.24 2.59.065.78.223 1.793.223 1.793s-.314.17-.314.854c.11 1.718.684.977.803 1.729.284 1.814.933 1.492.933 2.481 0 1.65-.212 2.21-2.336 3.124C.663 15.53 0 17 .011 19.129.014 19.766 0 20 0 20h16s-.011-.234-.011-.871zm.011-9.09-2.299-2.398-1.061 1.061L15.039 11l-2.398 2.298 1.061 1.061L16 11.961l2.298 2.398 1.061-1.061L16.961 11l2.397-2.298-1.061-1.061L16 10.039z"/></symbol><symbol id="icon-aircraft-off" viewBox="0 0 20 20"><path d="M18.752 16.038c-.097.266-.822 1.002-6.029-.878l-5.105-1.843C5.841 12.676 3.34 11.668 2.36 11.1c-.686-.397-.836-1.282-.836-1.282s-.163-2.956-.263-3.684c-.1-.728.095-.853.796-.492.436.225 1.865 2.562 2.464 3.567 1.512.381 2.862.761 3.493.949-.257-1.717-.74-4.928-.913-5.933-.166-.963.55-.535.55-.535.331.19.983.661 1.206 1.002 1.522 2.326 3.672 6.6 3.836 6.928.896.28 2.277.733 3.102 1.03 2.156.779 3.087 3.034 2.957 3.388z"/></symbol><symbol id="icon-aircraft-up" viewBox="0 0 20 20"><path d="M19.87 6.453c.119.257.127 1.29-4.884 3.642l-4.913 2.306c-1.71.803-4.191 1.859-5.285 2.151-.766.204-1.497-.316-1.497-.316S1.085 12.261.499 11.817c-.585-.444-.535-.67.215-.91.467-.149 3.13.493 4.265.78A91.697 91.697 0 0 1 8.12 9.889c-1.396-1.033-4.008-2.962-4.841-3.55-.799-.565.01-.768.01-.768.368-.099 1.162-.228 1.562-.144 2.721.569 7.263 2.071 7.611 2.186a90.641 90.641 0 0 1 2.922-1.465c2.075-.974 4.327-.037 4.486.305z"/></symbol></defs></svg>